<?xml version="1.0" standalone="no"?>
<!DOCTYPE svg PUBLIC "-//W3C//DTD SVG 20010904//EN"
 "http://www.w3.org/TR/2001/REC-SVG-20010904/DTD/svg10.dtd">
<svg version="1.0" xmlns="http://www.w3.org/2000/svg"
 width="512.000000pt" height="512.000000pt" viewBox="0 0 512.000000 512.000000"
 preserveAspectRatio="xMidYMid meet">
<metadata>
Created by potrace 1.14, written by Peter Selinger 2001-2017
</metadata>
<g transform="translate(0.000000,512.000000) scale(0.100000,-0.100000)"
fill="#000000" stroke="none">
<path d="M1443 4002 l-473 -237 0 -621 0 -620 478 -234 477 -233 138 -401 c76
-221 152 -441 170 -490 l32 -89 505 -173 505 -173 438 437 437 437 -171 512
-170 512 -460 153 -459 153 0 415 0 415 -475 238 c-261 130 -481 237 -488 236
-6 0 -225 -107 -484 -237z m539 -162 c38 -11 78 -51 78 -77 0 -8 -15 -30 -34
-49 -31 -31 -39 -34 -92 -34 -104 0 -161 59 -117 118 33 44 97 60 165 42z
m-822 -337 c42 -25 72 -86 72 -146 0 -43 -4 -55 -27 -74 -32 -28 -57 -24 -99
17 -55 54 -64 162 -15 203 26 21 34 21 69 0z m1600 -33 c43 -43 18 -163 -43
-212 -53 -43 -107 -5 -107 74 0 113 91 197 150 138z m-550 -270 c44 -44 18
-173 -44 -213 -108 -71 -152 123 -48 210 33 28 66 29 92 3z m-750 -145 c62
-32 98 -142 66 -203 -22 -42 -56 -50 -96 -22 -68 49 -93 163 -45 214 28 30 36
31 75 11z m1030 -15 c58 -31 42 -166 -26 -219 -36 -28 -68 -26 -93 5 -39 49
-23 140 34 197 29 28 54 34 85 17z m235 -360 c23 -26 24 -94 2 -137 -57 -108
-167 -112 -167 -6 0 110 109 205 165 143z m-997 -120 c68 -41 95 -168 47 -215
-30 -30 -48 -31 -86 -4 -88 62 -87 227 1 238 3 1 20 -8 38 -19z m470 -15 c27
-20 41 -69 31 -114 -9 -42 -85 -121 -116 -121 -66 0 -73 141 -10 209 19 20 49
38 67 40 3 1 15 -6 28 -14z m1291 -170 c64 -33 104 -111 80 -157 -16 -31 -28
-38 -65 -38 -62 0 -144 82 -144 143 0 61 63 87 129 52z m-260 -626 c91 -32 15
-163 -104 -176 -93 -11 -126 54 -62 123 17 19 50 41 72 49 49 17 54 18 94 4z
m331 -114 c20 -13 11 -73 -17 -106 -50 -59 -152 -80 -193 -39 -24 24 -25 41
-5 80 36 70 150 105 215 65z m-1095 -28 c30 -44 11 -128 -41 -180 -54 -54
-118 -45 -130 17 -8 46 1 81 32 129 42 63 107 79 139 34z m1372 -73 c7 -10 13
-28 13 -41 0 -33 -54 -89 -105 -109 -143 -54 -190 86 -53 155 51 26 124 24
145 -5z m-1078 -255 c91 -32 15 -163 -104 -176 -93 -11 -126 54 -62 123 17 19
50 41 72 49 49 17 54 18 94 4z m331 -114 c20 -13 11 -73 -17 -106 -50 -59
-152 -80 -193 -39 -24 24 -25 41 -5 80 36 70 150 105 215 65z m254 -85 c35
-13 44 -54 21 -97 -25 -46 -111 -88 -163 -80 -92 15 -80 116 20 166 47 23 83
26 122 11z"/>
</g>
</svg>
